<svg xmlns="http://www.w3.org/2000/svg" class="hidden">
  <symbol id="icon-JAFI-41" viewBox="0 0 528 522.8">
    <g xmlns="http://www.w3.org/2000/svg" >
      <path d="M189.1 371c0 20.8-16.9 37.7-37.7 37.7s-37.7-16.9-37.7-37.7c0-20.8 16.9-37.7 37.7-37.7s37.7 16.9 37.7 37.7zm113.7 25.5v-51.1l-45.6-7.7c-2-6.3-4.5-12.4-7.6-18.2l26.8-37.7-36.1-36.1-37.8 26.9c-5.7-3-11.7-5.5-17.9-7.4L177 220h-51.1l-7.6 45.2c-6.3 2-12.4 4.5-18.1 7.5L62.5 246l-36.1 36.1 26.7 37.6c-3 5.7-5.5 11.8-7.5 18.1L0 345.5v51.1l45.6 7.7c1.9 6.2 4.4 12.2 7.4 17.9L26.1 460l36.2 36 37.7-26.8c5.8 3 11.8 5.6 18.2 7.6l7.8 46h51.1l7.8-46c6.2-2 12.2-4.5 17.9-7.4l37.9 26.9 36.1-36.1-26.9-37.9c3-5.7 5.5-11.8 7.5-18l45.4-7.8z"/>
      <path d="M248.3 99.4c0 13.7-11.1 24.8-24.8 24.8-13.7 0-24.8-11.1-24.8-24.8s11.1-24.8 24.8-24.8c13.7 0 24.8 11.1 24.8 24.8zm74.8 16.7V82.6l-30-5.1c-1.3-4.2-3-8.2-5-12l17.6-24.8L281.9 17l-24.8 17.7c-3.8-2-7.7-3.6-11.8-4.9l-5-29.8h-33.6l-5 29.8c-4.2 1.3-8.1 3-11.9 4.9L165 17.1l-23.7 23.7 17.6 24.7c-2 3.8-3.6 7.8-4.9 11.9l-30 5.1v33.6l30 5.1c1.3 4.1 2.9 8 4.9 11.8l-17.7 24.8 23.7 23.7 24.8-17.6c3.8 2 7.8 3.7 11.9 5l5.1 30.3h33.6l5.1-30.3c4.1-1.3 8.1-2.9 11.8-4.9l24.9 17.7 23.7-23.7-17.7-24.9c2-3.8 3.6-7.7 4.9-11.9l30.1-5.1z"/>
      <path d="M453.2 302.1c0 13.7-11.1 24.8-24.8 24.8-13.7 0-24.8-11.1-24.8-24.8 0-13.7 11.1-24.8 24.8-24.8 13.7 0 24.8 11.1 24.8 24.8zm74.8 16.8v-33.6l-30-5.1c-1.3-4.2-3-8.2-5-12l17.6-24.8-23.7-23.7-24.8 17.7c-3.8-2-7.7-3.6-11.8-4.9l-5-29.8h-33.6l-5 29.8c-4.2 1.3-8.1 3-11.9 4.9L370 219.9l-23.7 23.7 17.6 24.7c-2 3.8-3.6 7.8-4.9 11.9l-30 5.1v33.6l30 5.1c1.3 4.1 2.9 8 4.9 11.8l-17.7 24.8 23.7 23.7 24.8-17.6c3.8 2 7.8 3.7 11.9 5l5.1 30.3h33.6l5.1-30.3c4.1-1.3 8.1-2.9 11.8-4.9l24.9 17.7 23.7-23.7-17.7-24.9c2-3.8 3.6-7.7 4.9-11.9l30-5.1z"/>
    </g>
  </symbol>
  <symbol id="icon-JAFI_addnew" viewBox="0 0 332.5 332.5">
    <path  d="M166.2 0C74.4 0 0 74.4 0 166.2s74.4 166.2 166.2 166.2S332.4 258 332.4 166.2 258.1 0 166.2 0zm105.4 196.2h-75.4v75.4h-60v-75.4H60.9v-60h75.4V60.9h60v75.4h75.4v59.9z"/>
  </symbol>
  <symbol id="icon-JAFI_alert" viewBox="0 0 443.8 394.3">
    <path  d="M438.7 337.8l-184.2-319c-14.5-25.1-50.7-25.1-65.2 0L5.1 337.8c-14.5 25.1 3.6 56.5 32.6 56.5H406c29 0 47.2-31.4 32.7-56.5zm-193.8 3.5h-46.8v-46.1h46.8v46.1zm7.7-164.9l-7.4 94.6h-47.3l-6.7-94.6V92h61.4v84.4z"/>
  </symbol>
  <symbol id="icon-JAFI_audio" viewBox="0 0 360.2 325.5">
    <g xmlns="http://www.w3.org/2000/svg" >
      <path d="M67.7 100.3H0v124.9h67.7l78.5 50.9V49.4zM272.1 304.6l20.8 20.8c89.7-89.7 89.7-235.7 0-325.5l-20.8 20.8c78.2 78.4 78.2 205.7 0 283.9zM228.1 260.6l20.8 20.8c65.4-65.4 65.4-171.9 0-237.4l-20.8 20.8c53.9 54 53.9 141.8 0 195.8zM185.6 218.2l20.8 20.8c42.1-42.1 42.1-110.5 0-152.6l-20.8 20.8c30.6 30.7 30.6 80.4 0 111z"/>
    </g>
  </symbol>
  <symbol id="icon-JAFI_camera" viewBox="0 0 387 290">
    <g xmlns="http://www.w3.org/2000/svg" >
      <path d="M363.7 50h-68.2l-20-50h-164l-20 50H23.3C10.5 50 0 60.4 0 73.3v193.4C0 279.6 10.5 290 23.3 290h340.4c12.9 0 23.3-10.5 23.3-23.3V73.3c0-12.9-10.4-23.3-23.3-23.3zM193.5 247.9c-38.7 0-70.3-31.5-70.3-70.3 0-38.7 31.5-70.3 70.3-70.3 38.7 0 70.3 31.5 70.3 70.3s-31.5 70.3-70.3 70.3zm99.9-134.8c-7.5 0-13.5-6-13.5-13.5s6-13.5 13.5-13.5 13.5 6 13.5 13.5-6.1 13.5-13.5 13.5zM193.5 125.5c-28.8 0-52.2 23.4-52.2 52.2 0 28.8 23.4 52.2 52.2 52.2s52.2-23.4 52.2-52.2c.1-28.8-23.4-52.2-52.2-52.2zM81.4 44.2h-59V27.3c0-3.3 2.7-6 6-6h47c3.3 0 6 2.7 6 6v16.9z"/>
    </g>
  </symbol>
  <symbol id="icon-JAFI_cameralens" viewBox="0 0 474.4 474.4">
    <path  d="M237.2 474.4C106.4 474.4 0 368 0 237.2S106.4 0 237.2 0s237.2 106.4 237.2 237.2S368 474.4 237.2 474.4zm0-456.3c-120.8 0-219.1 98.3-219.1 219.1s98.3 219.1 219.1 219.1S456.3 358 456.3 237.2 358 18.1 237.2 18.1zm11.1 153l183.4 132.5c7.1-20.8 11-43.2 11-66.4 0-63-28.3-119.3-72.9-157l-121.5 90.9zm-74.7 36.5L357 70.3C323.3 46 281.9 31.7 237.2 31.7c-39.1 0-75.6 10.9-106.7 29.8l43.1 146.1zm136.6 27.3L240 442.6c83.4-1.1 154.8-51.8 186-124.1l-115.8-83.6zm-126.3 62.3L117 70.6c-51.6 37.3-85.2 98-85.2 166.6 0 20.8 3.1 40.8 8.8 59.7l143.3.3zm83.5 15.7L46 312.4c28.4 72.3 96.7 124.5 177.7 129.8l43.7-129.3z"/>
  </symbol>
  <symbol id="icon-JAFI_categories" viewBox="0 0 334.7 429.5">
    <g xmlns="http://www.w3.org/2000/svg" >
      <path d="M47.5 121.6h239.7v14.5H47.5zM57.8 97.2h219.1v14.5H57.8zM75.7 72.8H259v14.5H75.7zM88.3 48.4h158.2v14.5H88.3zM104.5 23.9h125.8v14.5H104.5zM257.7 0H83.6L0 161.8l21.7 267.8h291.4l21.7-267.8L257.7 0zm-165 14.9h155.5l62.1 131.2h-285L92.7 14.9zM256 260.2H78.8v-29.5H256v29.5z"/>
    </g>
  </symbol>
  <symbol id="icon-JAFI_chart" viewBox="0 0 558.9 397.4">
    <path  d="M529 0c-16.5 0-29.8 13.4-29.8 29.8 0 9.9 4.8 18.6 12.2 24l-101.3 138c-4.9-3.6-11-5.7-17.6-5.7-13.6 0-25.1 9.1-28.7 21.6l-70.9-23.2c.9-2.9 1.4-5.9 1.4-9.1 0-16.5-13.4-29.8-29.8-29.8-16.5 0-29.8 13.4-29.8 29.8 0 10.7 5.6 20.1 14.1 25.3l-49.2 81c-4.3-2.4-9.2-3.7-14.5-3.7-11 0-20.5 5.9-25.7 14.7l-49.2-32.5c5.8-5.4 9.4-13.2 9.4-21.7 0-16.5-13.4-29.8-29.8-29.8S60 222.1 60 238.5c0 12.5 7.7 23.2 18.6 27.6L0 397.4h529V59.7c16.5 0 29.8-13.4 29.8-29.8S545.5 0 529 0zM392.5 198.2c9.8 0 17.8 8 17.8 17.8s-8 17.8-17.8 17.8-17.8-8-17.8-17.8 8-17.8 17.8-17.8zm-128-40.7c9.8 0 17.8 8 17.8 17.8s-8 17.8-17.8 17.8-17.8-8-17.8-17.8 8-17.8 17.8-17.8zm-79.4 132.4c9.8 0 17.8 8 17.8 17.8s-8 17.8-17.8 17.8-17.8-8-17.8-17.8 8-17.8 17.8-17.8zM71.9 238.4c0-9.8 8-17.8 17.8-17.8s17.8 8 17.8 17.8-8 17.8-17.8 17.8-17.8-8-17.8-17.8zM529 47.7c-9.8 0-17.8-8-17.8-17.8S519.2 12 529 12s17.8 8 17.8 17.8-7.9 17.9-17.8 17.9z"/>
  </symbol>
  <symbol id="icon-JAFI_checkmark" viewBox="0 0 523.4 412.8">
    <path  d="M151 412.8L0 227.7l56.3-46 101 123.8L472.9 0l50.5 52.2z"/>
  </symbol>
  <symbol id="icon-JAFI_clock" viewBox="0 0 357.9 357.9">
    <g xmlns="http://www.w3.org/2000/svg" >
      <path d="M178.9 357.9c-47.8 0-92.7-18.6-126.5-52.4S0 226.7 0 178.9 18.6 86.2 52.4 52.4 131.1 0 178.9 0s92.7 18.6 126.5 52.4 52.4 78.7 52.4 126.5-18.6 92.7-52.4 126.5c-33.7 33.9-78.7 52.5-126.5 52.5zm0-330.5c-40.5 0-78.5 15.8-107.2 44.4-28.6 28.6-44.4 66.7-44.4 107.2s15.8 78.5 44.4 107.2c28.6 28.6 66.7 44.4 107.2 44.4s78.5-15.8 107.2-44.4c28.6-28.6 44.4-66.7 44.4-107.2s-15.8-78.5-44.4-107.2c-28.6-28.7-66.7-44.4-107.2-44.4zM253.9 260.2l-66.2-67V63.5h-19.3l.4 137.9 71 69z"/>
    </g>
  </symbol>
  <symbol id="icon-JAFI_close" viewBox="0 0 280.6 280.6">
    <path  d="M280.6 25.5L255.1 0 140.3 114.8 25.5 0 0 25.5l114.8 114.8L0 255.1l25.5 25.5 114.8-114.9 114.8 114.9 25.5-25.5-114.9-114.8z"/>
  </symbol>
  <symbol id="icon-JAFI_cloud" viewBox="0 0 522 309.2">
    <path  d="M97.1 116.9s-12.6-83.5 48-108.8c78.2-32.7 126.4 44.5 126.4 44.5s32.5-44 78.4-22.3c64.4 30.4 36.3 86.6 36.3 86.6s49.4-13.3 67.9 24.6c16 32.8-1.2 60.9-1.2 60.9s69.1-.4 69.1 55c0 32.3-31.7 44.4-46.8 46.8-20.8 3.3-371 9.4-401.4 0C43.3 294.8 0 269.1 0 207c0-90.1 97.1-90.1 97.1-90.1z"/>
  </symbol>
  <symbol id="icon-JAFI_compose" viewBox="0 0 365.5 371.4">
    <g xmlns="http://www.w3.org/2000/svg" >
      <path d="M296 129.1V323c0 6.5-5.5 12.1-12.1 12.1H48.3c-6.5 0-12.1-5.5-12.1-12.1V87.5c0-6.5 5.5-12.1 12.1-12.1h182.3l36.2-36.2H48.3C21.7 39.2 0 60.8 0 87.5v235.6c0 26.6 21.7 48.3 48.3 48.3h235.6c26.6 0 48.3-21.7 48.3-48.3V92.9L296 129.1zM351.3 56.2L157.2 250.3l-47.1 5.1 5.1-47L309.4 14.2zM312.318 11.205L323.56-.038l42.003 42-11.243 11.244z"/>
    </g>
  </symbol>
  <symbol id="icon-JAFI_document" viewBox="0 0 367.9 490.9">
    <g xmlns="http://www.w3.org/2000/svg" >
      <path d="M208.6 0H0v490.9h367.9V146.8L208.6 0zm74.8 99.7l44.2 40.7-112.1.1V37.2l67.9 62.5zm61.9 368.6H22.6V22.6h170.2v140.5l152.5-.1v305.3zM52.5 195.9h263V227h-263zM52.5 247.9h263V279h-263zM52.5 300h263v31.1h-263zM52.5 352h263v31.1h-263zM52.5 404.1h263v31.1h-263zM164 76.6c-7-14.5-19.2-25.5-34.4-30.8-6.5-2.3-13.2-3.4-20-3.4-25.6 0-48.4 16.2-56.9 40.3-5.3 15.2-4.4 31.6 2.5 46.1 7 14.5 19.2 25.5 34.4 30.8 6.5 2.3 13.2 3.4 20 3.4 25.6 0 48.4-16.2 56.9-40.3 5.3-15.2 4.4-31.6-2.5-46.1zM86.9 65.4l16.4 44.5 46.5 9.5c-6.7 16.2-22.6 26.9-40.3 26.9-4.9 0-9.8-.8-14.5-2.5-11-3.9-19.8-11.8-24.9-22.3-5-10.5-5.7-22.3-1.8-33.3 3.5-9.6 10-17.6 18.6-22.8zm66.3 37.6l-37.4-7.6-13.2-35.8c7.2-1.2 14.5-.5 21.4 1.9 11 3.9 19.8 11.8 24.9 22.3 2.9 6 4.4 12.6 4.3 19.2z"/>
    </g>
  </symbol>
  <symbol id="icon-JAFI_eye" viewBox="0 0 523.8 274.1">
    <path  d="M515.6 127.8c-1.2-1.3-28.8-32.4-73.7-63.7C382 22.1 319.7 0 261.9 0s-120.1 22.1-180 64.1C37.1 95.4 9.4 126.5 8.2 127.8L0 137.1l8.2 9.3c1.2 1.3 28.8 32.4 73.7 63.7 60 41.9 122.2 64.1 180 64.1s120.1-22.1 180-64.1c44.9-31.4 72.5-62.4 73.7-63.7l8.2-9.3-8.2-9.3zM261.9 201c-35.3 0-64-28.6-64-64 0-34.4 27.1-62.4 61.2-63.9-3.4 5.5-5.4 12-5.4 18.9 0 19.9 16.1 36.1 36.1 36.1 12.9 0 24.2-6.8 30.6-17 3.5 7.9 5.5 16.7 5.5 25.9 0 35.4-28.7 64-64 64zM38.1 137.1c20.7-20.6 75.7-70.5 145.6-95-27.4 22.6-44.8 56.7-44.8 95 0 38.2 17.4 72.3 44.7 94.9-33.5-11.7-62.8-28.9-85-44.4-28.1-19.6-49.3-39.3-60.5-50.5zM340.2 232c27.4-22.6 44.8-56.7 44.8-95 0-38.2-17.4-72.3-44.7-94.9 33.5 11.7 62.8 28.9 85 44.4 28 19.5 49.2 39.3 60.4 50.4-20.7 20.8-75.6 70.6-145.5 95.1z"/>
  </symbol>
  <symbol id="icon-JAFI_gear-hex" viewBox="0 0 404.4 350.2">
    <path  d="M303.3 0H101.1L0 175.1l101.1 175.1h202.2l101.1-175.1L303.3 0zM202.2 249.6c-41.1 0-74.4-33.3-74.4-74.4 0-41.1 33.3-74.4 74.4-74.4s74.4 33.3 74.4 74.4c.1 41-33.3 74.4-74.4 74.4z"/>
  </symbol>
  <symbol id="icon-JAFI_gear" viewBox="0 0 458.8 458.8">
    <path  d="M286.5 228.9c0 31.5-25.6 57.1-57.1 57.1s-57.1-25.6-57.1-57.1 25.6-57.1 57.1-57.1 57.1 25.5 57.1 57.1zm172.3 38.6v-77.4l-69.1-11.7c-3-9.6-6.9-18.8-11.5-27.6l40.6-57.1L364.1 39l-57.2 40.7c-8.6-4.5-17.7-8.3-27.2-11.2L268.1 0h-77.4l-11.6 68.5c-9.6 3-18.7 6.8-27.5 11.4L94.7 39.5 40 94.2l40.5 56.9c-4.6 8.7-8.4 17.9-11.4 27.4L0 190.2v77.4l69.1 11.7c3 9.4 6.7 18.5 11.2 27.1l-40.7 57.2 54.7 54.7 57.1-40.6c8.7 4.6 17.9 8.4 27.5 11.5l11.8 69.7h77.4l11.8-69.7c9.5-3 18.5-6.8 27.2-11.3l57.4 40.8 54.7-54.7-40.8-57.4c4.5-8.7 8.3-17.8 11.3-27.3l69.1-11.8z"/>
  </symbol>
  <symbol id="icon-JAFI_greenranger" viewBox="0 0 491 491">
    <g xmlns="http://www.w3.org/2000/svg" >
      <path d="M245.5 491c-65.6 0-127.2-25.5-173.6-71.9C25.5 372.8 0 311.1 0 245.5S25.5 118.3 71.9 71.9C118.3 25.5 179.9 0 245.5 0s127.2 25.5 173.6 71.9c46.4 46.4 71.9 108 71.9 173.6s-25.5 127.2-71.9 173.6c-46.3 46.4-108 71.9-173.6 71.9zm0-471C185.3 20 128.6 43.5 86 86.1s-66 99.2-66 159.4S43.5 362.4 86.1 405c42.6 42.6 99.2 66.1 159.5 66.1 60.2 0 116.9-23.5 159.5-66.1S471 305.8 471 245.5c0-60.2-23.5-116.9-66.1-159.5s-99.1-66-159.4-66zM245.7 388.3l-5.8-4.7c-.3-.2-27.8-22.6-54.5-47.9-15.8-15-28.3-28.1-37-38.9-12.9-15.9-17.9-27-16.4-35.9l17.9 3c-.1.5-.7 12.5 48.5 59.2 18.7 17.7 37.8 33.9 47.1 41.7 9.1-7.9 27.8-24.5 46.2-42.4 48.2-46.8 49.7-58.8 49.7-60h18.1c0 9-6.3 25.5-55.2 73-26.1 25.4-52.6 47.9-52.9 48.2l-5.7 4.7zM394.5 196.8c-9.5-37.1-24.6-63.6-25.2-64.7L359 114.2 331.7 200l-22.4 20-63.8-160.3L181.7 220l-22.4-20-27.3-85.8-10.2 17.8c-.6 1.1-15.7 27.6-25.2 64.7-12.7 49.8-8.9 94.8 11 130.2 31.7 56.3 130.1 100.8 134.3 102.7l3.7 1.7 3.7-1.7c1-.5 25.8-11.6 54.7-29.6 39.4-24.6 66.2-49.2 79.6-73 19.8-35.4 23.6-80.4 10.9-130.2zm-99 37.6l-50 78.1-50-78.1 50-125.6 50 125.6zm72.2 83.7c-25.5 45.4-104.2 84.7-122.2 93.3-18-8.6-96.7-47.9-122.2-93.3-31.2-55.5-9.6-123.8 4.6-157l15.7 49.1 34.8 31.1L245.5 346l67.1-104.8 34.8-31.1 15.7-49.1c14.2 33.3 35.8 101.6 4.6 157.1z"/>
    </g>
  </symbol>
  <symbol id="icon-JAFI_home" viewBox="0 0 336 413.4">
    <path  d="M168 0L0 134.7v278.7h121.9V262.7h92.2v150.7H336V134.7z"/>
  </symbol>
  <symbol id="icon-JAFI_lightbulb" viewBox="0 0 276 494.9">
    <g xmlns="http://www.w3.org/2000/svg" >
      <path d="M275.4 123.5c-4.8-53.3-43.9-100.6-96-117.2-52.1-16.5-110-.2-145.6 41.2-38.3 44.4-44.6 104.4-16.1 157.6C35.8 239 53.1 273.2 61.8 311c2.9 12.4 5 25.1 8.2 37.5 3.5 13.8 10.3 19.5 24.3 20 14.4.5 28.8.1 43.2.1v.1c14.4 0 28.8.4 43.2-.1 15-.6 21.8-6.5 25.5-21.2 2.2-8.7 3.7-17.5 5.4-26.3 8.1-41 25.7-78.2 45.7-114.4 14.4-26 20.7-53.7 18.1-83.2zM114.7 43.7c-1.5 7.3-8.7 12-16 10.5-1.2-.2-7.8 1-18.9 10.3-16.7 13.9-29.3 33.6-29.4 42-.1 7.4-6.2 13.3-13.5 13.3h-.2c-7.5-.1-13.5-6.3-13.3-13.8.3-20.5 21.3-48.2 40.9-63.9 15.1-12.1 28.6-17 40.1-14.6 7.2 1.7 11.9 8.9 10.3 16.2zM69.5 379.5h137V402h-137zM69.5 410.5h137V433h-137zM69.5 441.4h137v22.5h-137zM195.2 472.4H80.8l8.4 22.5h97.5z"/>
    </g>
  </symbol>
  <symbol id="icon-JAFI_link" viewBox="0 0 542.5 542.4">
    <g xmlns="http://www.w3.org/2000/svg">
      <path  d="M542.5 122.1L337.4 303.5l-33.7-33.7 20.3-20.3 14.6 14.6 161.9-143.2-79-79-143.7 161.4 15.2 15.2-20.3 20.3-34.4-34.4L420.4 0l122.1 122.1zM122.1 542.4L0 420.3l205.1-181.4 33.7 33.7-20.3 20.4-14.6-14.6L42 421.6l79 79 143.7-161.4-15.2-15.2 20.3-20.3 34.4 34.4-182.1 204.3zM189.317 336.297L336.394 189.22l16.83 16.83-147.078 147.076z"/>
    </g>
  </symbol>
  <symbol id="icon-JAFI_locationpin" viewBox="0 0 272 413.4">
    <path  d="M136 0C60.9 0 0 60.9 0 136s136 277.4 136 277.4S272 211.1 272 136 211.1 0 136 0zm0 195.7c-34.8 0-63.1-28.2-63.1-63.1s28.2-63.1 63.1-63.1c34.8 0 63.1 28.2 63.1 63.1s-28.3 63.1-63.1 63.1z"/>
  </symbol>
  <symbol id="icon-JAFI_mail" viewBox="0 0 395.5 241.4">
    <g xmlns="http://www.w3.org/2000/svg" >
      <path d="M0 0h395.5L197.7 123zM395.5 190.7v-170l-145.2 88.9zM145.2 109.6L0 20.7v170zM232.6 120.4l-34.9 21.4-34.8-21.4L0 211.4v30h395.5v-30z"/>
    </g>
  </symbol>
  <symbol id="icon-JAFI_menu" viewBox="0 0 335.3 234.2">
    <g xmlns="http://www.w3.org/2000/svg" >
      <path d="M0 0h335.3v47.3H0zM0 93.4h335.3v47.3H0zM0 186.9h335.3v47.3H0z"/>
    </g>
  </symbol>
  <symbol id="icon-JAFI_messaging" viewBox="0 0 485.2 350.4">
    <g xmlns="http://www.w3.org/2000/svg" >
      <path d="M189.9 0C85 0 0 67.7 0 151.2c0 39.1 18.6 74.7 49.1 101.5-6.7 17.8-20.8 39.1-49.1 60.4 0 0 76.1-3 104.1-27 25.8 10.4 54.9 16.3 85.7 16.3 104.9 0 189.9-67.7 189.9-151.2S294.7 0 189.9 0zM452.9 310.4c12.4-14.2 19.7-31.2 19.7-49.5 0-36.8-29.3-68.4-71.2-82.1-2.8 14.6-7.9 28.9-15.1 42.5-11.1 20.9-26.9 39.7-47 55.6-22.3 17.7-48.5 31-77.1 39.4 21.6 20.7 55 34 92.5 34 24.6 0 47.4-5.7 66.3-15.5 22.3 12.3 64.3 13.9 64.3 13.9-18-13.3-27.5-26.8-32.4-38.3z"/>
    </g>
  </symbol>
  <symbol id="icon-JAFI_microphone" viewBox="0 0 350.1 447.7">
    <path  d="M350.1 206.6h-21.5c1-5.4 1.7-10.7 2.2-16.1h-52.1c-.7 5.3-1.6 10.7-2.7 16.1h-34.3v-42.4H203c-5.1 0-9.2-4.2-9.2-9.2 0-5.1 4.2-9.2 9.2-9.2h38.7v-11.5H203c-5.1 0-9.2-4.2-9.2-9.2 0-5.1 4.2-9.2 9.2-9.2h38.7v-11.5H203c-5.1 0-9.2-4.2-9.2-9.2S198 86 203 86h38.7V74.3H203c-5.1 0-9.2-4.2-9.2-9.2 0-5.1 4.2-9.2 9.2-9.2h38.7C241.3 25.1 216.1 0 185.3 0h-20.5c-31 0-56.4 25.4-56.4 56.4v150.3H74.2c-1.1-5.4-2-10.8-2.7-16.1H18.3c.5 5.3 1.2 10.7 2.2 16.1H0v27h27.5c19.8 59.3 67.1 113.7 120.8 124v48.7H91.2v41.4h167.7v-41.4h-57.1v-48.7c53.7-10.3 100.3-64.7 119.9-124h28.4v-27.1zM175 308.6c-57.1.1-83.1-35.9-93.3-75h26.6v1.6c0 31 25.4 56.4 56.4 56.4h20.5c31 0 56.4-25.4 56.4-56.4v-1.6h26.6c-9.3 40.1-37.3 75-93.2 75z"/>
  </symbol>
  <symbol id="icon-JAFI_night" viewBox="0 0 312.2 366.7">
    <path  d="M273.4 324C170.5 324 87 240.5 87 137.6 87 83.1 101.4 34.1 138.6 0 58.8 21.1 0 93.8 0 180.2c0 103 83.5 186.4 186.4 186.4 48.5 0 92.7-18.5 125.8-48.9-15.2 4.1-22.2 6.3-38.8 6.3z"/>
  </symbol>
  <symbol id="icon-JAFI_oldkey" viewBox="0 0 467.4 518.7">
    <path  d="M34.5 34.5c-35.3 35.3-45.1 82.8-21.9 106 17.6 17.6 49.2 16.2 78.8-.9l43.8 23.1 2.1-2.1L287 310.4c.7 11.1 7.1 24.3 18.1 35.3l4.1-4.1 8.6 8.6-3.8 3.8 33 33 3.8-3.8 7.9 7.9-4 4 7.7 7.7-7.8 7.8-7.7-7.7-46.6 46.6 24.5 24.5 8.1-8.1 6.9 6.9 7.1-7.1 11 11-7.1 7.1 6.9 6.9-8.1 8.1 19.9 19.9 46.6-46.6-7.7-7.7 7.8-7.8 7.7 7.7 4-4 6 6c3.3 3.3 13.2-1.2 22.2-10.1 8.9-8.9 13.4-18.8 10.1-22.2L383 350.8l3.8-3.8-33-33-3.8 3.8-8.6-8.6 4.1-4.1c-11-11-24.2-17.4-35.3-18.1L160.7 137.3l2.1-2.1-23.1-43.8c17.1-29.6 18.5-61.2.9-78.8C117.3-10.6 69.8-.8 34.5 34.5zM114 76.2c-7.9 7.9-18 11.6-27 10.8.8 9-3 19.1-10.8 26.9-12.6 12.6-31.2 14.6-41.4 4.3-10.2-10.2-8.3-28.8 4.3-41.4 7.9-7.8 18-11.5 27-10.7-.8-9 3-19.1 10.8-26.9 12.6-12.6 31.2-14.6 41.4-4.3 10.2 10.2 8.3 28.7-4.3 41.3z"/>
  </symbol>
  <symbol id="icon-JAFI_pen" viewBox="0 0 344.8 388.4">
    <g xmlns="http://www.w3.org/2000/svg" >
      <path d="M82.4 114L0 366.4l3 2.7 4.6 3.9L129 229c-4.3-7.4-3.8-17.1 2.1-24.1 7.5-8.9 20.7-10 29.6-2.5s10 20.7 2.5 29.6c-5.9 7-15.3 9.1-23.4 6.1L18.3 382l4.6 3.9 3.2 2.5 234.8-123.9c-25.6-83.4 46.7-141.6 46.7-141.6l-93.4-78.7c0-.1-45.2 81-131.8 69.8zM316.207 113.46L222.02 34.047 250.705.026 344.89 79.44z"/>
    </g>
  </symbol>
  <symbol id="icon-JAFI_picture" viewBox="0 0 484 364">
    <path  d="M0 0v364h484V0H0zm58 104.9c0-32 26-58 58-58s58 26 58 58-26 58-58 58-58-26-58-58zM436 312H92l124-168 91 55 77-113.1 52 88V312z"/>
  </symbol>
  <symbol id="icon-JAFI_podcast" viewBox="0 0 418.7 518.2">
    <g xmlns="http://www.w3.org/2000/svg" >
      <path d="M232.4 258.9c20.2-8.9 34.4-29.1 34.4-52.6 0-31.7-25.7-57.5-57.5-57.5-31.7 0-57.5 25.7-57.5 57.5 0 23 13.5 42.8 33 52-24.9 10.3-49.2 32.3-48.1 45.8l15.9 185.8c1.4 16 13.4 28.3 27.8 28.3h57.8c14.4 0 26.4-12.3 27.8-28.3l15.8-185c1.3-13.6-25.6-35.4-49.4-46zM209.4 60C127 60 60 127 60 209.4c0 42.6 18 81.2 46.7 108.4l10.3-24.3c-20.2-22.2-32.6-51.7-32.6-84.1 0-68.9 56.1-125 125-125s125 56.1 125 125c0 32.4-12.4 61.9-32.6 84.1l10.3 24.3c28.7-27.2 46.7-65.8 46.7-108.4C358.8 127 291.7 60 209.4 60zM357.4 61.3C317.9 21.8 265.3 0 209.4 0c-55.9 0-108.5 21.8-148 61.3C21.8 100.9 0 153.4 0 209.4s21.8 108.5 61.3 148c6.6 6.6 13.6 12.7 20.9 18.3l9.9-23.3c-4.7-3.8-9.2-7.9-13.5-12.2-34.9-34.9-54.2-81.4-54.2-130.8s19.2-95.9 54.2-130.8c34.9-34.9 81.4-54.2 130.8-54.2 49.4 0 95.9 19.2 130.8 54.2s54.2 81.4 54.2 130.8-19.2 95.9-54.2 130.8c-4.3 4.3-8.8 8.4-13.5 12.2l9.9 23.3c7.3-5.6 14.3-11.7 20.9-18.3 39.5-39.5 61.3-92.1 61.3-148s-21.9-108.5-61.4-148.1z"/>
    </g>
  </symbol>
  <symbol id="icon-JAFI_randomize" viewBox="0 0 464 310.9">
    <path  d="M390.5 279.9v31l73.5-49-73.5-49.1v31H261.6l-55.1-88.4 55.1-88.3h128.9v31L464 49 390.5 0v31h-145l-58.3 93.5-57.5-92.3L.3 31 0 67.1l113.6 1 54.4 87.3-54.4 87.3L0 243.8l.3 36.1 129.4-1.2 57.5-92.4 58.3 93.6z"/>
  </symbol>
  <symbol id="icon-JAFI_search" viewBox="0 0 396.4 393.7">
    <path  d="M212.6 36.1c-49-48.5-128-48.1-176.5.9S-12 165 37 213.5c45.1 44.6 115.5 47.8 164.2 9.9l160.1 170.3 35-35.4-172.2-158c37.5-49.2 33.5-119.6-11.5-164.2zm-25 150.8c-34.3 34.7-90.2 35-124.9.6-34.7-34.3-35-90.2-.7-124.9s90.2-35 124.9-.6c34.7 34.3 35 90.2.7 124.9z"/>
  </symbol>
  <symbol id="icon-JAFI_server" viewBox="0 0 410 357.9">
    <g xmlns="http://www.w3.org/2000/svg" >
      <path d="M0 0v78h410V0H0zm391 39c0 5.7-4.7 10.4-10.4 10.4h-75.9c-5.7 0-10.4-4.7-10.4-10.4s4.7-10.4 10.4-10.4h75.9c5.7 0 10.4 4.7 10.4 10.4zM0 93.3v78h410v-78H0zm391 39c0 5.7-4.7 10.4-10.4 10.4h-75.9c-5.7 0-10.4-4.7-10.4-10.4s4.7-10.4 10.4-10.4h75.9c5.7 0 10.4 4.7 10.4 10.4zM0 186.6v78h410v-78H0zm391 39c0 5.7-4.7 10.4-10.4 10.4h-75.9c-5.7 0-10.4-4.7-10.4-10.4s4.7-10.4 10.4-10.4h75.9c5.7 0 10.4 4.7 10.4 10.4zM0 279.9v78h410v-78H0zm391 39c0 5.7-4.7 10.4-10.4 10.4h-75.9c-5.7 0-10.4-4.7-10.4-10.4s4.7-10.4 10.4-10.4h75.9c5.7 0 10.4 4.7 10.4 10.4z"/>
    </g>
  </symbol>
  <symbol id="icon-JAFI_sharing" viewBox="0 0 456.9 450.4">
    <g xmlns="http://www.w3.org/2000/svg" >
      <path d="M453.8 450.4H0V212.2h139.4v42H42v154.2h369.8V254.2h-97.4v-42h139.4zM456.9 97.1L326.9 0v49.4S209.2 25.1 182.1 131c-25.7 100.8 34.7 224.3 34.7 224.3S204.2 224.2 258 158.1c34.1-41.9 68.9-12.9 68.9-12.9v48.9l130-97z"/>
    </g>
  </symbol>
  <symbol id="icon-JAFI_sharingalt" viewBox="0 0 282.5 408.5">
    <path  d="M232.5 308.5c-3.9 0-7.7.5-11.3 1.3L99.7 219.5c.2-1.7.3-3.3.3-5 0-7.8-1.8-15.2-5-21.8L164.7 99c3.3.7 6.8 1.1 10.3 1.1 27.6 0 50-22.4 50-50s-22.4-50-50-50-50 22.4-50 50c0 5.6.9 11 2.6 16l-73.4 98.7c-1.4-.1-2.8-.2-4.3-.2-27.6 0-50 22.4-50 50s22.4 50 50 50c7.6 0 14.7-1.7 21.2-4.7l113.4 84.3c-1.4 4.6-2.1 9.4-2.1 14.4 0 27.6 22.4 50 50 50s50-22.4 50-50-22.3-50.1-49.9-50.1z"/>
  </symbol>
  <symbol id="icon-JAFI_sunlight" viewBox="0 0 562.4 562.4">
    <g xmlns="http://www.w3.org/2000/svg" >
      <path d="M271.3 0h19.8v176.8h-19.8zM271.3 385.6h19.8v176.8h-19.8zM0 271.3h176.8v19.8H0zM385.6 271.3h176.8v19.8H385.6zM115.43 101.337l94.47 94.468-14 14-94.47-94.468zM366.49 352.45l94.47 94.468-14 14-94.47-94.468zM446.985 101.363l14 14-94.468 94.47-14-14.002zM195.872 352.424l14 14-94.468 94.47-14-14.002zM214.397 81.652l36.93 95.188-18.46 7.16-36.93-95.186zM329.515 378.406l36.93 95.188-18.46 7.16-36.93-95.186zM232.817 378.465l18.46 7.162-36.93 95.188-18.46-7.162zM347.923 81.648l18.46 7.162-36.93 95.188-18.46-7.162zM89.883 192.96l94.718 38.105-7.388 18.37-94.72-38.105zM385.18 311.735l94.72 38.104-7.39 18.367-94.718-38.103zM474.572 197.757l6.932 18.547-95.637 35.745-6.932-18.547zM176.435 309.19l6.932 18.546-95.637 35.746-6.932-18.547zM281.2 197.1c-46.4 0-84.1 37.6-84.1 84.1 0 46.4 37.6 84.1 84.1 84.1s84.1-37.6 84.1-84.1c-.1-46.4-37.7-84.1-84.1-84.1zm0 147.8c-35.2 0-63.7-28.5-63.7-63.7s28.5-63.7 63.7-63.7 63.7 28.5 63.7 63.7-28.5 63.7-63.7 63.7z"/>
    </g>
  </symbol>
  <symbol id="icon-JAFI_sync" viewBox="0 0 503.9 452.1">
    <g xmlns="http://www.w3.org/2000/svg" >
      <path d="M307.9 7.8C249.6-7.8 188.7.2 136.5 30.4S46.8 109.3 31.2 167.6c-11.6 43.3-10.2 88 3.7 129.5L0 317.2l104 28.3 27.5-104.2-37.8 21.8c-15.9-67 13-139.5 75.7-175.7 47.3-27.3 103-27.6 148.9-5.8L383.5 44c-22.4-16.5-47.9-28.8-75.6-36.2zM503.9 132.3l-104-28.3-27.5 104.2 32.8-18.9c15.8 67-13.2 139.2-75.8 175.3-49.5 28.6-108.1 27.6-155.2 2.6l-64 36.9c23.6 18.4 50.9 32.1 80.7 40.1 58.3 15.6 119.2 7.6 171.5-22.6s89.7-78.9 105.3-137.2c11.6-43.2 10.2-87.8-3.6-129.2l39.8-22.9z"/>
    </g>
  </symbol>
  <symbol id="icon-JAFI_tools" viewBox="0 0 560.3 506.9">
    <g xmlns="http://www.w3.org/2000/svg" >
      <path d="M195.2 6.7c-34.8 16.9-46.7 35.2-50.1 40.2-2.3.2-8.6-2.9-10.4-1.2l-57 57c-4 4 .6 15.2.6 15.2L61 130.5c-2.8-2.8-7.2-3.2-9.9-.9L5.9 157.3c-5.3 3.2-7.6 10-4.5 13.2l.1.1L75.9 245l.1.1c3.2 3.1 10 .8 13.2-4.5l27.8-45.3c2.3-2.7 2-7.1-.9-9.9l14.3-18.9c3 .3 9.4-4.1 9.4-4.1l31.3 14.1 146.7 146.7 13.8 30.4c.5 2.6 1.6 5.2 3.3 7.3l.1.3.1-.1c.3.4.7.8 1.1 1.2L475.9 502c6.5 6.5 17.1 6.5 23.6 0l37.9-37.9c6.5-6.5 6.5-17.1 0-23.6L397.7 300.8c-.4-.4-.9-.8-1.4-1.2l.1-.1-.4-.2c-2.1-1.6-4.4-2.6-6.8-3.1l-30.3-13.5-147-147-14.3-31.8c.2-.3.6-.7.6-.7s11.2-29.4 30-44.5c30.5-24.3 88-10.6 88-10.6l10.7-6.3S249.9-20 195.2 6.7zM431.9 176.8c35.8 12.7 83 3.3 109.3-22.9 0 0 22.7-53.1 18.7-85.1l-54.6 54.1-55.9-9.5-8.8-56 54.5-53.9c-31.5-4.7-86.2 18-86.2 18-26 26-35 73.1-22.6 109L116 400.6l-54 23.6-3.3 15.5 19.9 19.9L103 484l20 20 15.5-3.3 23.6-54 269.8-269.9zm-300.7 282l-11.5 3.1c-2.9.8-6.1-.1-8.3-2.2l-8.4-8.4c-2.2-2.2-3-5.3-2.2-8.3l3.1-11.5c.8-2.9 3.1-5.2 6-6l11.5-3.1c2.9-.8 6.1.1 8.3 2.2l8.4 8.4c2.2 2.2 3 5.3 2.2 8.3l-3.1 11.5c-.7 2.9-3 5.2-6 6z"/>
    </g>
  </symbol>
  <symbol id="icon-JAFI_unlock" viewBox="0 0 286.5 423.9">
    <path  d="M274.9 383.1V211.8h-27.8V97.1C247.1 43.5 203.5 0 150 0h-13.5C83 0 39.4 43.5 39.4 97.1v68.8H84V97.1c0-28.9 23.5-52.4 52.4-52.4H150c28.9 0 52.4 23.5 52.4 52.4v114.7H11.6v171.3H0v40.8h286.5v-40.8h-11.6zm-122.3-96.2v34.3c0 4.6-3.7 8.3-8.3 8.3h-2.1c-4.6 0-8.3-3.7-8.3-8.3v-34.3c-8.4-3.6-14.2-11.9-14.2-21.6 0-13 10.5-23.6 23.6-23.6s23.6 10.5 23.6 23.6c-.1 9.6-5.9 17.9-14.3 21.6z"/>
  </symbol>
  <symbol id="icon-JAFI_wifi" viewBox="0 0 603.9 426.1">
    <g xmlns="http://www.w3.org/2000/svg" >
      <path d="M301.9 426.1l-47.7-46.8c26.3-26.3 69.1-26.3 95.3 0l-47.6 46.8zM381.4 347.5c-43.8-43.8-115.1-43.8-158.9 0l-31.8-31.8c61.3-61.3 161.1-61.3 222.5 0l-31.8 31.8zM445 284c-78.9-78.9-207.2-78.9-286 0l-31.8-31.8c96.4-96.4 253.2-96.4 349.6 0L445 284zM508.5 220.4c-113.9-113.9-299.3-113.9-413.2 0l-31.8-31.8c131.4-131.4 345.3-131.4 476.7 0l-31.7 31.8zM572.1 156.8c-149-149-391.3-149-540.3 0L0 125.1C80.6 44.4 187.9 0 301.9 0c114.1 0 221.3 44.4 302 125.1l-31.8 31.7z"/>
    </g>
  </symbol>
</svg>
