<?xml version="1.0" encoding="UTF-8"?>
<!DOCTYPE svg PUBLIC "-//W3C//DTD SVG 1.1//EN" "http://www.w3.org/Graphics/SVG/1.1/DTD/svg11.dtd">
<svg class="hidden" xmlns="http://www.w3.org/2000/svg">
  <symbol id="icon-socialmedia_appnet" viewBox="1054 -490.3 500 458.7">
    <path d="M1303.8-434c-95.5 0-173 77.5-173 173s77.5 173 173 173 173-77.4 173-173c0-95.5-77.5-173-173-173zm85 233.7l-24.3-37h-121.4l-24.3 37h-21.9l106.9-161 106.9 161h-21.9zm-85-125.4l46.7 70.4H1257l46.8-70.4z"/>
  </symbol>
  <symbol id="icon-socialmedia_bitbucket" viewBox="1054 982.7 500 458.7">
    <path d="M1304 1042c-81.1 0-147.3 21.8-147.3 48.9 0 7.1 17.7 109.4 24.7 149.9 3.1 18.2 50.1 44.8 122.6 44.8l.1-.2v.2c72.4 0 119.4-26.7 122.6-44.8 7-40.5 24.7-142.8 24.7-149.9-.1-27.1-66.3-48.9-147.4-48.9zm0 210.7c-25.9 0-46.8-21-46.8-46.8 0-25.9 21-46.8 46.8-46.8 25.9 0 46.8 21 46.8 46.8 0 25.9-20.9 46.8-46.8 46.8zm0-146.7c-52.1-.1-94.3-9.1-94.3-20.2s42.3-20 94.4-19.9c52.1.1 94.3 9.1 94.3 20.2-.1 11-42.3 19.9-94.4 19.9zM1409.9 1281.4c-2.2 0-4 1.6-4 1.6s-36.3 28.7-101.8 28.7c-65.6 0-101.8-28.7-101.8-28.7s-1.8-1.6-4-1.6c-2.7 0-5.2 1.8-5.2 5.8 0 .4 0 .8.1 1.2 5.6 30.1 9.7 51.5 10.5 54.8 4.9 22.2 48.3 38.9 100.5 38.9s95.6-16.7 100.5-38.9c.7-3.3 4.8-24.6 10.5-54.8.1-.4.1-.8.1-1.2-.2-4-2.8-5.8-5.4-5.8z"/>
    <circle cx="1304" cy="1205.9" r="23.5"/>
  </symbol>
  <symbol id="icon-socialmedia_bloglovin" viewBox="530 0 500 458.7">
    <path d="M781 159.2c14.3-26 36.7-30.7 62-26.2 22.9 4.1 39.4 17.3 46.7 39.7 8 24.3 1.9 48.3-13.9 65.9-27.6 30.8-58.7 58.5-88.9 86.9-2.6 2.4-11.7 2.2-14.4-.4-30.4-28.9-62.2-56.7-89.2-88.5-21.7-25.6-20.5-58-5.3-79.6 23.2-33.2 82.7-34.2 98.7-1.8.4 1.1 1.8 1.8 4.3 4z"/>
  </symbol>
  <symbol id="icon-socialmedia_codepen" viewBox="530 498.7 500 458.7">
    <path d="M780 555.7c-95.2 0-172.3 77.2-172.3 172.3S684.8 900.4 780 900.4c95.2 0 172.3-77.2 172.3-172.3S875.2 555.7 780 555.7zm0 316.4c-79.4 0-144-64.6-144-144s64.6-144 144-144 144 64.6 144 144-64.6 144-144 144zM886.5 694.4c0-.1-.1-.3-.1-.4 0-.3-.1-.5-.2-.8 0-.2-.1-.3-.1-.4-.1-.2-.1-.4-.2-.7-.1-.2-.1-.3-.2-.4l-.3-.6c-.1-.1-.2-.3-.3-.4-.1-.2-.2-.4-.4-.6-.1-.1-.2-.3-.3-.4-.1-.2-.3-.3-.5-.5l-.4-.4c-.2-.2-.3-.3-.5-.4-.1-.1-.3-.2-.4-.3-.1 0-.1-.1-.2-.1l-97.3-65c-3.1-2.1-7.1-2.1-10.2 0l-97.4 64.9c-.1 0-.1.1-.2.1-.1.1-.3.2-.4.3-.2.1-.4.3-.5.4l-.4.4-.5.5c-.1.1-.2.3-.3.4-.1.2-.3.4-.4.6-.1.1-.2.3-.3.4l-.3.6c-.1.1-.1.3-.2.4-.1.2-.2.4-.2.7 0 .1-.1.3-.1.4-.1.3-.1.5-.2.8 0 .1-.1.3-.1.4-.1.4-.1.8-.1 1.2v64.9c0 .4 0 .8.1 1.2 0 .1.1.3.1.4 0 .3.1.5.2.8 0 .2.1.3.1.4.1.2.1.4.2.7.1.2.1.3.2.4l.3.6c.1.1.2.3.3.4.1.2.2.4.4.6.1.1.2.3.3.4.1.2.3.3.5.5l.4.4c.2.2.3.3.5.4.1.1.3.2.4.3.1 0 .1.1.2.1l97.4 64.9c1.5 1 3.3 1.5 5.1 1.5 1.8 0 3.5-.5 5.1-1.5l97.4-64.9c.1 0 .1-.1.2-.1.1-.1.3-.2.4-.3.2-.1.4-.3.5-.4l.4-.4.5-.5c.1-.1.2-.3.3-.4.1-.2.3-.4.4-.6.1-.1.2-.3.3-.4l.3-.6c.1-.1.1-.3.2-.4.1-.2.2-.4.2-.7 0-.1.1-.3.1-.4.1-.3.1-.5.2-.8 0-.1.1-.3.1-.4.1-.4.1-.8.1-1.2v-64.9c-.1-.3-.2-.7-.2-1.1zm-97.3-46.7l71.8 47.8-32 21.4-39.7-26.6v-42.6zm-18.4 0v42.7L731.1 717 699 695.6l71.8-47.9zm-79 65l22.9 15.3-22.9 15.3v-30.6zm79 95.6L699 760.5l32.1-21.4 39.7 26.6v42.6zm9.2-58.6L747.6 728l32.4-21.7 32.4 21.7-32.4 21.7zm9.2 58.6v-42.7l39.7-26.6 32 21.4-71.7 47.9zm79-65L845.3 728l22.9-15.3v30.6z"/>
  </symbol>
  <symbol id="icon-socialmedia_dribbble" viewBox="0 498.7 500 458.7">
    <path fill-rule="evenodd" clip-rule="evenodd" d="M250 839.9c-61.7 0-111.9-50.2-111.9-111.9S188.3 616.1 250 616.1 361.9 666.3 361.9 728 311.7 839.9 250 839.9zm94.3-96.6c-3.3-1-29.6-8.9-59.5-4.1 12.5 34.3 17.6 62.3 18.6 68.1 21.4-14.4 36.7-37.4 40.9-64zm-57 72.8c-1.4-8.4-7-37.6-20.4-72.5-.2.1-.4.1-.6.2-53.9 18.8-73.2 56.2-75 59.7 16.2 12.6 36.6 20.2 58.7 20.2 13.2 0 25.9-2.7 37.3-7.6zm-108.3-24c2.2-3.7 28.4-47.1 77.7-63.1 1.2-.4 2.5-.8 3.8-1.1-2.4-5.4-5-10.9-7.7-16.2-47.7 14.3-94 13.7-98.2 13.6v2.9c-.2 24.5 9.1 46.9 24.4 63.9zm-22.5-83.5c4.3.1 43.6.2 88.3-11.6-15.8-28.1-32.9-51.8-35.4-55.3-26.8 12.6-46.7 37.2-52.9 66.9zm71.1-73.3c2.6 3.5 20 27.2 35.7 55.9 34-12.7 48.4-32.1 50.1-34.5-16.9-15-39.1-24.1-63.3-24.1-7.8 0-15.3.9-22.5 2.7zm96.4 32.4c-2 2.7-18 23.3-53.4 37.7 2.2 4.6 4.4 9.2 6.3 13.8.7 1.7 1.4 3.3 2.1 4.9 31.8-4 63.4 2.4 66.5 3.1-.2-22.5-8.2-43.2-21.5-59.5z"/>
  </symbol>
  <symbol id="icon-socialmedia_facebook" viewBox="-526 0 500 458.7">
    <path d="M-291.5 141.8c7.6-7.3 18.4-9.7 28.7-10 10.8-.1 21.6 0 32.4 0V166h-21c-4.4-.3-9 3.1-9.8 7.5-.1 7.6 0 15.3 0 22.9h30.7c-.7 11-2.1 22-3.7 33-9 .1-18.1 0-27.1 0-.1 32.5 0 65.1-.1 97.6-13.4.1-26.9 0-40.3 0-.3-32.6 0-65.1-.1-97.7-6.6-.1-13.1 0-19.7-.1v-32.8c6.6-.1 13.1 0 19.7 0 .2-10.6-.2-21.3.2-31.9.6-8.5 3.8-16.9 10.1-22.7z"/>
  </symbol>
  <symbol id="icon-socialmedia_github" viewBox="1054 498.7 500 458.7">
    <path d="M1446 728c0 78.5-63.6 142.1-142.1 142.1-78.4 0-141.9-63.5-141.9-142.1 0-78.4 63.6-142.1 141.9-142.1 78.6 0 142.1 63.7 142.1 142.1zm-106.4 115.5c48.8-16.1 84.2-61.6 84.2-115.4 0-66.2-53.7-119.9-119.9-119.9-66 0-119.7 53.7-119.7 119.9 0 53.8 35.5 99.5 84.5 115.4v-22.6c-35 7.9-42.3-16.4-42.3-16.4-5.6-14.3-13.6-18-13.6-18-11.2-7.6.8-7.5.8-7.5 12.3.8 18.9 12.6 18.9 12.6 11.7 20 30.9 12.8 36.9 9.9 1.8-8.7 8.6-10.5 10.8-11.2-31.5-3.3-65.2-14.7-65.2-69.2 0-15.3 5.4-27.8 14.3-37.5-1.4-3.6-6.2-17.8 1.4-37 0 0 11.8-3.7 38.4 14.3 11.1-3.1 23-4.6 35-4.7 11.8.1 23.7 1.7 35 4.7 26.6-18 38.3-14.3 38.3-14.3 7.6 19.3 2.9 33.4 1.4 37 9 9.7 14.4 22.2 14.4 37.5 0 54.5-33.7 65.8-65.2 69.1 5.7 3.9 11.7 11.2 11.7 25.3l-.1 28z"/>
  </symbol>
  <symbol id="icon-socialmedia_githubalt" viewBox="-526 982.7 500 458.7">
    <path fill-rule="evenodd" clip-rule="evenodd" d="M-276 1062.1c-84.9 0-153.7 68.8-153.7 153.7 0 67.9 44 125.5 105.1 145.9 7.7 1.4 10.5-3.3 10.5-7.4 0-3.7-.1-15.8-.2-28.6-42.8 9.3-51.8-18.1-51.8-18.1-7-17.8-17.1-22.5-17.1-22.5-13.9-9.5 1.1-9.3 1.1-9.3 15.4 1.1 23.6 15.8 23.6 15.8 13.7 23.5 36 16.7 44.7 12.8 1.4-9.9 5.4-16.7 9.8-20.6-34.1-3.9-70-17.1-70-76 0-16.8 6-30.5 15.8-41.3-1.6-3.9-6.9-19.5 1.5-40.7 0 0 12.9-4.1 42.3 15.8 12.3-3.4 25.4-5.1 38.5-5.2 13.1.1 26.2 1.8 38.5 5.2 29.3-19.9 42.2-15.8 42.2-15.8 8.4 21.2 3.1 36.8 1.5 40.7 9.9 10.8 15.8 24.5 15.8 41.3 0 59-36 72-70.2 75.8 5.5 4.8 10.4 14.1 10.4 28.5 0 20.6-.2 37.1-.2 42.2 0 4.1 2.8 8.9 10.6 7.4 61-20.3 105-77.9 105-145.8 0-85-68.8-153.8-153.7-153.8z"/>
    <path d="M-371.5 1282.8c-.3.8-1.5 1-2.6.5s-1.7-1.5-1.4-2.3c.3-.8 1.5-1 2.6-.5 1.2.5 1.8 1.5 1.4 2.3zm-1.9-1.4M-365.3 1289.7c-.7.7-2.2.4-3.1-.7-1-1.1-1.2-2.5-.5-3.2.8-.7 2.1-.4 3.2.7 1 1.1 1.2 2.6.4 3.2zm-1.4-1.5M-359.2 1298.6c-.9.7-2.5 0-3.4-1.3-.9-1.4-.9-3 0-3.7 1-.7 2.5-.1 3.4 1.3 1 1.4 1 3 0 3.7zm0 0M-350.9 1307.1c-.8.9-2.6.7-3.9-.6-1.3-1.2-1.7-3-.9-3.9.9-.9 2.7-.7 4 .6 1.3 1.3 1.7 3 .8 3.9zm0 0M-339.4 1312.1c-.4 1.2-2.1 1.8-3.8 1.2-1.7-.5-2.9-1.9-2.5-3.2.4-1.2 2.1-1.8 3.9-1.2 1.6.6 2.7 2 2.4 3.2zm0 0M-326.9 1313c0 1.3-1.4 2.3-3.3 2.3-1.8 0-3.3-1-3.3-2.2 0-1.3 1.4-2.3 3.3-2.4 1.8.1 3.3 1.1 3.3 2.3zm0 0M-315.2 1311c.2 1.2-1.1 2.5-2.9 2.8-1.8.3-3.4-.4-3.7-1.7-.2-1.3 1.1-2.5 2.9-2.9 1.9-.2 3.5.6 3.7 1.8zm0 0"/>
  </symbol>
  <symbol id="icon-socialmedia_googleplus" viewBox="0 0 500 458.7">
    <path d="M348.3 174.6h-26.1v26.1h-13v-26.1h-26.1v-13h26.1v-26.1h13v26.1h26.1v13zm-73.7 107.8c0 19.5-17.8 43.3-62.7 43.3-32.8 0-60.2-14.2-60.2-38 0-18.4 11.6-42.2 66-42.2-8.1-6.6-10.1-15.8-5.1-25.7-31.8 0-48.1-18.7-48.1-42.5 0-23.3 17.3-44.4 52.6-44.4h56.5L261 146.2h-15c10.5 6 16 18.3 16 31.9 0 12.5-6.9 22.6-16.7 30.2-17.4 13.5-13 21 5.3 34.3 18.1 13.5 24 23.9 24 39.8zM239.4 179c-2.6-20-15.7-36.4-30.9-36.9S183.1 157 185.7 177c2.6 20 17.1 34 32.3 34.4 15.2.4 24-12.4 21.4-32.4zm15.7 105.4c0-16.4-15-32.1-40.2-32.1-22.7-.2-41.9 14.3-41.9 31.2 0 17.3 16.4 31.6 39.1 31.6 29 .1 43-13.4 43-30.7z"/>
  </symbol>
  <symbol id="icon-socialmedia_instagram" viewBox="-526 -490.3 500 458.7">
    <path d="M-191.4-372h-169.2c-14.6 0-26.4 11.8-26.4 26.3v169.3c0 14.5 11.8 26.3 26.4 26.3h169.2c14.6 0 26.4-11.8 26.4-26.3v-169.3c0-14.5-11.8-26.3-26.4-26.3zm-41.4 31.5c0-3.4 2.8-6.2 6.2-6.2h30c3.4 0 6.2 2.8 6.2 6.2v29.9c0 3.4-2.8 6.2-6.2 6.2h-30c-3.4 0-6.2-2.8-6.2-6.2v-29.9zm-42.9 37.2c23.6 0 42.7 19.1 42.7 42.6s-19.1 42.6-42.7 42.6-42.7-19.1-42.7-42.6 19.1-42.6 42.7-42.6zm85.9 121.3c0 3.4-2.8 6.2-6.2 6.2h-159.4c-3.4 0-6.2-2.8-6.2-6.2v-96.5h20.8c-1.6 5.7-2.4 11.6-2.4 17.8 0 37.1 30.3 67.4 67.5 67.4s67.5-30.2 67.5-67.4c0-6.2-.8-12.1-2.4-17.8h20.8v96.5z"/>
  </symbol>
  <symbol id="icon-socialmedia_klout" viewBox="1054 0 500 458.7">
    <path d="M1140.5 102.8v199.7h220.9l106.1 53.3v-253h-327zm133.7 114.5H1258l-39.5 55.6h-46.8l54-72.2-49.9-69.5h45.7l36.5 53.3h16.2v32.8zm115.3 55.5l-39.5-55.6h-26.9v55.6h-37.5V131.1h37.5v53.3h26.9l36.5-53.3h45.7l-49.9 69.5 54 72.2h-46.8z"/>
  </symbol>
  <symbol id="icon-socialmedia_link" viewBox="530 982.7 500 458.7">
    <path d="M763.9 1155.4c13.8-14.5 27-31.8 43.4-45.1 22.1-17.9 52.7-14.5 71 4.5 18.7 19.5 20.6 50.2 1.9 71.9-16.9 19.6-35.4 38.1-54.9 55.1-19.7 17.1-48 16.7-67.7 1.8-9.1-6.8-11.5-16.2-6.1-23.5 5.3-7.1 13.6-7.4 23.3-.8 11.4 7.8 23.9 7.7 33.8-1.7 16.5-15.6 32.6-31.7 48.1-48.3 9.6-10.2 9.1-24.6.5-33.5-8.7-9-22.7-10-33.5-1.2-8 6.5-15.3 14.1-22.4 21.6-4 4.2-7.1 5.6-13.3 3.4-8-2.8-17-3.1-24.1-4.2zM796.6 1269.6c-13.2 13.7-26.2 29.2-41.2 42.3-22.3 19.5-54.5 17.5-74.1-2.7-18.9-19.6-19.8-52.2-.4-73.6 16.4-18 33.7-35.3 51.7-51.6 20.5-18.6 50.8-18.9 70.7-2.4 8.5 7 10.3 15.9 4.8 22.9-5.3 6.7-13.6 7-22.4.7-11.5-8.1-24.1-8.1-34.6 1.8-16.1 15.1-31.8 30.7-46.9 46.8-10.9 11.6-10.5 26.2-.4 35.7 9.6 9.1 23.6 8.6 35.1-1.9 7.4-6.8 14.2-14.2 21.6-21.1 1.9-1.7 5-3.7 7.2-3.3 9.8 1.8 19.7 4.3 28.9 6.4z"/>
  </symbol>
  <symbol id="icon-socialmedia_navicon" viewBox="0 982.7 500 458.7">
    <path d="M144.6 1199.4h210.7v25.2H144.6zM144.6 1146.2h210.7v25.2H144.6zM144.6 1252.7h210.7v25.2H144.6z"/>
  </symbol>
  <symbol id="icon-socialmedia_pinterest" viewBox="0 -490.3 500 458.7">
    <path d="M250-396.3c-75.3 0-136.4 61.1-136.4 136.4 0 55.8 33.6 103.8 81.6 124.9-.4-9.5-.1-21 2.4-31.3 2.6-11.1 17.5-74.3 17.5-74.3s-4.4-8.7-4.4-21.6c0-20.2 11.7-35.3 26.3-35.3 12.4 0 18.4 9.3 18.4 20.5 0 12.5-8 31.1-12 48.4-3.4 14.5 7.3 26.3 21.5 26.3 25.8 0 43.2-33.2 43.2-72.5 0-29.9-20.1-52.3-56.7-52.3-41.4 0-67.1 30.8-67.1 65.3 0 11.9 3.5 20.3 9 26.7 2.5 3 2.9 4.2 2 7.6-.7 2.5-2.2 8.5-2.8 10.9-.9 3.5-3.7 4.7-6.8 3.4-19.1-7.8-27.9-28.6-27.9-52.1 0-38.7 32.7-85.2 97.5-85.2 52.1 0 86.3 37.7 86.3 78.1 0 53.5-29.7 93.5-73.6 93.5-14.7 0-28.6-8-33.3-17 0 0-7.9 31.4-9.6 37.5-2.9 10.5-8.5 21-13.7 29.2 12.3 3.6 25.2 5.6 38.6 5.6 75.3 0 136.4-61.1 136.4-136.4 0-75.2-61.1-136.3-136.4-136.3z"/>
  </symbol>
  <symbol id="icon-socialmedia_rdio" viewBox="-526 495.7 500 458.7">
    <path d="M-181.3 710.2c.6 4.6.9 9.2.9 14v.8c0 60.9-49 110.3-115.1 110.3-65.6 0-114.3-48.6-114.3-109.5v-.8c0-60.9 49-110.3 115.1-110.3 11.4 0 22.3 1.6 32.5 4.3v64.6c-1.9-1-4-1.8-6.2-2.6-28.5-9.6-59 4-73.4 27.4l-.4.7c-14.7 23.7-7.3 50.6 20.4 59.9 28.5 9.6 59-4 73.4-27.4l.4-.7c5-8.1 8.5-16.5 8.4-24.5v-89.3c1.6.8 3.1 1.6 4.6 2.4 1.4.7 1.7 1.5 3 2.3 14.5 9.1 51.8 33.4 82.7 32.5 16.6 1.4 2.4 37-32 45.9z"/>
  </symbol>
  <symbol id="icon-socialmedia_twitter" viewBox="530 -490.3 500 458.7">
    <path d="M884.7-314.7c.1 2.3.2 4.6.2 7 0 71.4-54.3 153.7-153.7 153.7-30.5 0-58.9-8.9-82.8-24.3 4.2.5 8.5.8 12.9.8 25.3 0 48.6-8.6 67.1-23.1-23.6-.4-43.6-16-50.5-37.5 3.3.6 6.7 1 10.2 1 4.9 0 9.7-.7 14.2-1.9-24.7-5-43.3-26.8-43.3-53v-.7c7.3 4 15.6 6.5 24.5 6.8-14.5-9.7-24-26.2-24-45 0-9.9 2.7-19.2 7.3-27.2 26.6 32.7 66.4 54.2 111.3 56.4-.9-4-1.4-8.1-1.4-12.3 0-29.8 24.2-54 54-54 15.5 0 29.6 6.6 39.4 17.1 12.3-2.4 23.9-6.9 34.3-13.1-4 12.6-12.6 23.2-23.7 29.9 10.9-1.3 21.3-4.2 31-8.5-7.3 10.8-16.5 20.3-27 27.9z"/>
  </symbol>
</svg>
